{
    "asset" : {
        "generator" : "Khronos glTF Blender I/O v1.7.33",
        "version" : "2.0"
    },
    "scene" : 0,
    "scenes" : [
        {
            "name" : "Scene",
            "nodes" : [
                0,
                1
            ]
        }
    ],
    "nodes" : [
        {
            "mesh" : 0,
            "name" : "Icosphere",
            "rotation" : [
                0.7954733967781067,
                0,
                0,
                0.6059885025024414
            ],
            "scale" : [
                0.8257787227630615,
                0.8257787227630615,
                0.8257787227630615
            ]
        },
        {
            "mesh" : 1,
            "name" : "Icosphere.001"
        }
    ],
    "materials" : [
        {
            "doubleSided" : true,
            "name" : "Material.001",
            "pbrMetallicRoughness" : {
                "baseColorFactor" : [
                    0.158882737159729,
                    0.035502832382917404,
                    0.009721840731799603,
                    1
                ],
                "metallicFactor" : 0,
                "roughnessFactor" : 0.4909090995788574
            }
        },
        {
            "doubleSided" : true,
            "name" : "Material.002",
            "pbrMetallicRoughness" : {}
        }
    ],
    "meshes" : [
        {
            "name" : "Icosphere.001",
            "primitives" : [
                {
                    "attributes" : {
                        "POSITION" : 0,
                        "NORMAL" : 1,
                        "TEXCOORD_0" : 2
                    },
                    "indices" : 3,
                    "material" : 0
                }
            ]
        },
        {
            "name" : "Icosphere.002",
            "primitives" : [
                {
                    "attributes" : {
                        "POSITION" : 4,
                        "NORMAL" : 5,
                        "TEXCOORD_0" : 6
                    },
                    "indices" : 7,
                    "material" : 1
                }
            ]
        }
    ],
    "accessors" : [
        {
            "bufferView" : 0,
            "componentType" : 5126,
            "count" : 2526,
            "max" : [
                1.1965265274047852,
                1.2224069833755493,
                1.159752368927002
            ],
            "min" : [
                -1.2759755849838257,
                -1.2376067638397217,
                -1.3087866306304932
            ],
            "type" : "VEC3"
        },
        {
            "bufferView" : 1,
            "componentType" : 5126,
            "count" : 2526,
            "type" : "VEC3"
        },
        {
            "bufferView" : 2,
            "componentType" : 5126,
            "count" : 2526,
            "type" : "VEC2"
        },
        {
            "bufferView" : 3,
            "componentType" : 5123,
            "count" : 2526,
            "type" : "SCALAR"
        },
        {
            "bufferView" : 4,
            "componentType" : 5126,
            "count" : 3840,
            "max" : [
                1,
                0.9999999403953552,
                1
            ],
            "min" : [
                -0.9999999403953552,
                -0.9999999403953552,
                -1
            ],
            "type" : "VEC3"
        },
        {
            "bufferView" : 5,
            "componentType" : 5126,
            "count" : 3840,
            "type" : "VEC3"
        },
        {
            "bufferView" : 6,
            "componentType" : 5126,
            "count" : 3840,
            "type" : "VEC2"
        },
        {
            "bufferView" : 7,
            "componentType" : 5123,
            "count" : 3840,
            "type" : "SCALAR"
        }
    ],
    "bufferViews" : [
        {
            "buffer" : 0,
            "byteLength" : 30312,
            "byteOffset" : 0
        },
        {
            "buffer" : 0,
            "byteLength" : 30312,
            "byteOffset" : 30312
        },
        {
            "buffer" : 0,
            "byteLength" : 20208,
            "byteOffset" : 60624
        },
        {
            "buffer" : 0,
            "byteLength" : 5052,
            "byteOffset" : 80832
        },
        {
            "buffer" : 0,
            "byteLength" : 46080,
            "byteOffset" : 85884
        },
        {
            "buffer" : 0,
            "byteLength" : 46080,
            "byteOffset" : 131964
        },
        {
            "buffer" : 0,
            "byteLength" : 30720,
            "byteOffset" : 178044
        },
        {
            "buffer" : 0,
            "byteLength" : 7680,
            "byteOffset" : 208764
        }
    ],
    "buffers" : [
        {
            "byteLength" : 216444,
            "uri" : "data:application/octet-stream;base64,"
        }
    ]
}
